<svg xmlns="http://www.w3.org/2000/svg" xmlns:xlink="http://www.w3.org/1999/xlink" viewBox="0 0 2001.94 5225.37"><defs><style>.cls-1{fill:#092632;}.cls-2{fill:#e74010;}.cls-3{clip-path:url(#clip-path);}.cls-4{clip-path:url(#clip-path-2);}.cls-5{clip-path:url(#clip-path-3);}.cls-6{clip-path:url(#clip-path-4);}.cls-7{clip-path:url(#clip-path-5);}.cls-8{clip-path:url(#clip-path-6);}.cls-9{clip-path:url(#clip-path-7);}.cls-10{clip-path:url(#clip-path-8);}</style><clipPath id="clip-path" transform="translate(1548.69 977.82)"><path class="cls-1" d="M24.51,20.6a.69.69,0,0,0-.1.74l1.07,2.22-2.77-1.09a.7.7,0,0,0-.6,0,10.31,10.31,0,0,1-4.87,1.19c-4.93,0-8.94-3.32-8.94-7.38s4-7.39,8.94-7.39,8.94,3.32,8.94,7.39a6.49,6.49,0,0,1-1.67,4.28Zm-19.45-7a.72.72,0,0,0-.59,0l-2.36.93L3,12.62H3a.67.67,0,0,0-.1-.74A5.88,5.88,0,0,1,1.41,8C1.41,4.37,5,1.38,9.46,1.38c4.24,0,7.73,2.72,8,6.18h-.25c-4.93,0-9,2.93-10.1,6.84a9.39,9.39,0,0,1-2.06-.81ZM18.91,7.66C18.69,3.41,14.54,0,9.46,0S0,3.6,0,8a7.17,7.17,0,0,0,1.54,4.39l-1,2.08A1.09,1.09,0,0,0,.6,15.58a1.14,1.14,0,0,0,1,.52A1.22,1.22,0,0,0,2,16L4.69,15a10.3,10.3,0,0,0,2.22.79c0,.19,0,.38,0,.56,0,4.84,4.64,8.78,10.35,8.78a11.8,11.8,0,0,0,5.25-1.22L25.26,25h0a1.28,1.28,0,0,0,1.41-.3,1.25,1.25,0,0,0,.23-1.4l-1-2.12h0a7.72,7.72,0,0,0,1.71-4.83c0-4.35-3.76-8-8.68-8.65Z"/></clipPath><clipPath id="clip-path-2" transform="translate(1548.69 977.82)"><rect class="cls-1" x="-924.8" y="-582.81" width="1204.08" height="3147.34"/></clipPath><clipPath id="clip-path-3" transform="translate(1548.69 977.82)"><path class="cls-2" d="M14,15a.9.9,0,0,0-.24-.12.79.79,0,0,0-.26-.08,1.23,1.23,0,0,0-.54,0,.79.79,0,0,0-.26.08.9.9,0,0,0-.24.12.91.91,0,0,0-.21.18,1.38,1.38,0,0,0,0,2,1.2,1.2,0,0,0,.21.17,1.36,1.36,0,0,0,.24.13,1.12,1.12,0,0,0,.26.08,1.23,1.23,0,0,0,.54,0,1.12,1.12,0,0,0,.26-.08,1.36,1.36,0,0,0,.24-.13,1.84,1.84,0,0,0,.22-.17,1.42,1.42,0,0,0,.4-1A1.4,1.4,0,0,0,14,15Z"/></clipPath><clipPath id="clip-path-4" transform="translate(1548.69 977.82)"><rect class="cls-2" x="-1545.82" y="-977.82" width="1999.08" height="5225.37"/></clipPath><clipPath id="clip-path-5" transform="translate(1548.69 977.82)"><path class="cls-2" d="M18.6,16.17a1.39,1.39,0,0,1-2.78,0,1.39,1.39,0,0,1,2.78,0"/></clipPath><clipPath id="clip-path-6" transform="translate(1548.69 977.82)"><rect class="cls-2" x="-1547.34" y="-977.82" width="1999.08" height="5225.37"/></clipPath><clipPath id="clip-path-7" transform="translate(1548.69 977.82)"><path class="cls-2" d="M22.2,15,22,14.89a.87.87,0,0,0-.26-.08,1.23,1.23,0,0,0-.54,0,.92.92,0,0,0-.27.08,1,1,0,0,0-.23.12,1.39,1.39,0,0,0-.21,2.14,1.2,1.2,0,0,0,.21.17,1.71,1.71,0,0,0,.23.13.9.9,0,0,0,.27.07.75.75,0,0,0,.26,0,.86.86,0,0,0,.28,0,.77.77,0,0,0,.26-.07l.24-.13.21-.17a1.38,1.38,0,0,0,.4-1A1.41,1.41,0,0,0,22.2,15Z"/></clipPath><clipPath id="clip-path-8" transform="translate(1548.69 977.82)"><rect class="cls-2" x="-1548.69" y="-977.82" width="1999.08" height="5225.37"/></clipPath></defs><g id="Layer_2" data-name="Layer 2"><g id="Layer_1-2" data-name="Layer 1"><path class="cls-1" d="M24.51,20.6a.69.69,0,0,0-.1.74l1.07,2.22-2.77-1.09a.7.7,0,0,0-.6,0,10.31,10.31,0,0,1-4.87,1.19c-4.93,0-8.94-3.32-8.94-7.38s4-7.39,8.94-7.39,8.94,3.32,8.94,7.39a6.49,6.49,0,0,1-1.67,4.28Zm-19.45-7a.72.72,0,0,0-.59,0l-2.36.93L3,12.62H3a.67.67,0,0,0-.1-.74A5.88,5.88,0,0,1,1.41,8C1.41,4.37,5,1.38,9.46,1.38c4.24,0,7.73,2.72,8,6.18h-.25c-4.93,0-9,2.93-10.1,6.84a9.39,9.39,0,0,1-2.06-.81ZM18.91,7.66C18.69,3.41,14.54,0,9.46,0S0,3.6,0,8a7.17,7.17,0,0,0,1.54,4.39l-1,2.08A1.09,1.09,0,0,0,.6,15.58a1.14,1.14,0,0,0,1,.52A1.22,1.22,0,0,0,2,16L4.69,15a10.3,10.3,0,0,0,2.22.79c0,.19,0,.38,0,.56,0,4.84,4.64,8.78,10.35,8.78a11.8,11.8,0,0,0,5.25-1.22L25.26,25h0a1.28,1.28,0,0,0,1.41-.3,1.25,1.25,0,0,0,.23-1.4l-1-2.12h0a7.72,7.72,0,0,0,1.71-4.83c0-4.35-3.76-8-8.68-8.65Z" transform="translate(1548.69 977.82)"/><g class="cls-3"><rect class="cls-1" x="623.88" y="395.01" width="1204.08" height="3147.34"/><g class="cls-4"><rect class="cls-1" x="1544.5" y="973.64" width="35.96" height="33.45"/></g></g><path class="cls-2" d="M14,15a.9.9,0,0,0-.24-.12.79.79,0,0,0-.26-.08,1.23,1.23,0,0,0-.54,0,.79.79,0,0,0-.26.08.9.9,0,0,0-.24.12.91.91,0,0,0-.21.18,1.38,1.38,0,0,0,0,2,1.2,1.2,0,0,0,.21.17,1.36,1.36,0,0,0,.24.13,1.12,1.12,0,0,0,.26.08,1.23,1.23,0,0,0,.54,0,1.12,1.12,0,0,0,.26-.08,1.36,1.36,0,0,0,.24-.13,1.84,1.84,0,0,0,.22-.17,1.42,1.42,0,0,0,.4-1A1.4,1.4,0,0,0,14,15Z" transform="translate(1548.69 977.82)"/><g class="cls-5"><rect class="cls-2" x="2.86" width="1999.08" height="5225.37"/><g class="cls-6"><rect class="cls-2" x="1553.54" y="985.66" width="16.66" height="16.66"/></g></g><path class="cls-2" d="M18.6,16.17a1.39,1.39,0,0,1-2.78,0,1.39,1.39,0,0,1,2.78,0" transform="translate(1548.69 977.82)"/><g class="cls-7"><rect class="cls-2" x="1.34" width="1999.08" height="5225.37"/><g class="cls-8"><rect class="cls-2" x="1557.57" y="985.66" width="16.66" height="16.66"/></g></g><path class="cls-2" d="M22.2,15,22,14.89a.87.87,0,0,0-.26-.08,1.23,1.23,0,0,0-.54,0,.92.92,0,0,0-.27.08,1,1,0,0,0-.23.12,1.39,1.39,0,0,0-.21,2.14,1.2,1.2,0,0,0,.21.17,1.71,1.71,0,0,0,.23.13.9.9,0,0,0,.27.07.75.75,0,0,0,.26,0,.86.86,0,0,0,.28,0,.77.77,0,0,0,.26-.07l.24-.13.21-.17a1.38,1.38,0,0,0,.4-1A1.41,1.41,0,0,0,22.2,15Z" transform="translate(1548.69 977.82)"/><g class="cls-9"><rect class="cls-2" width="1999.08" height="5225.37"/><g class="cls-10"><rect class="cls-2" x="1561.78" y="985.66" width="16.66" height="16.66"/></g></g></g></g></svg>