<svg xmlns="http://www.w3.org/2000/svg" viewBox="0 0 49.85 25.63"><defs><style>.cls-1{fill:#092632;}.cls-2{fill:#e74010;}</style></defs><g id="Layer_2" data-name="Layer 2"><g id="Layer_1-2" data-name="Layer 1"><path class="cls-1" d="M40.42,25.63a3.87,3.87,0,0,1-3.82-3.35H24.09a3.85,3.85,0,0,1-7.64,0h-3a2.65,2.65,0,0,1-2.58-2.71V16.15a.63.63,0,0,1,.59-.6.59.59,0,0,1,.6.6v3.42A1.43,1.43,0,0,0,13.49,21h3a3.88,3.88,0,0,1,7.63,0H36.61a3.87,3.87,0,0,1,7.62,0h2.84a1.48,1.48,0,0,0,1.46-1.33V13.6a10.12,10.12,0,0,0-1.87-1.22,4.83,4.83,0,0,1-1.72-1.71L43.25,7.74A3,3,0,0,0,40.6,6.17H36.72v8a.64.64,0,0,1-.6.59.59.59,0,0,1-.6-.59V2.72A1.53,1.53,0,0,0,34,1.2H5.53A.64.64,0,0,1,4.94.6.59.59,0,0,1,5.53,0H34a2.75,2.75,0,0,1,2.78,2.77V4.91h3.88a4.37,4.37,0,0,1,3.69,2.23L46,10.06a3.56,3.56,0,0,0,1.27,1.27c2.11,1.15,2.54,1.74,2.54,2.33v6a2.66,2.66,0,0,1-2.71,2.59h-2.9A3.88,3.88,0,0,1,40.42,25.63Zm0-6.52a2.64,2.64,0,1,0,1.94,4.45,2.43,2.43,0,0,0,.69-1.81v-.13A2.61,2.61,0,0,0,40.42,19.11Zm-20.09,0a2.64,2.64,0,0,0,0,5.27A2.63,2.63,0,0,0,23,21.75v-.13A2.63,2.63,0,0,0,20.33,19.11Z"/><path class="cls-1" d="M44.4,13a.64.64,0,0,1-.45-.22,8.69,8.69,0,0,1-.76-1.07L41.51,8.79a1,1,0,0,0-.84-.57H39V10a.64.64,0,0,1-.65.6.59.59,0,0,1-.6-.6V7.63a.59.59,0,0,1,.6-.6h2.3a2.27,2.27,0,0,1,2,1.17l1.68,2.92a3.05,3.05,0,0,0,.45.66l.16.2a.61.61,0,0,1,0,.88A1,1,0,0,1,44.4,13Z"/><path class="cls-2" d="M10.57,13.72a.49.49,0,0,0-.5.5.54.54,0,0,0,.5.5h6.84a.49.49,0,0,0,.5-.5.54.54,0,0,0-.5-.5Z"/><circle class="cls-2" cx="20.33" cy="21.74" r="1.02"/><path class="cls-2" d="M3.05,10.86a.49.49,0,0,0,.49.5H15.11a.5.5,0,0,0,0-1H3.54A.49.49,0,0,0,3.05,10.86Z"/><path class="cls-2" d="M14.43,8a.49.49,0,0,0,.49-.5.53.53,0,0,0-.49-.5H7.52A.48.48,0,0,0,7,7.5a.53.53,0,0,0,.49.5Z"/><path class="cls-2" d="M.5,4.58H15.11a.49.49,0,0,0,.5-.5.54.54,0,0,0-.5-.5H.5a.49.49,0,0,0-.5.49.54.54,0,0,0,.5.5Z"/><circle class="cls-2" cx="40.44" cy="21.74" r="1.02"/><path class="cls-1" d="M23.29,4.08a4.54,4.54,0,1,1-4.54,4.54A4.49,4.49,0,0,1,23.29,4.08Zm0,10.13a5.6,5.6,0,1,0-5.6-5.59A5.61,5.61,0,0,0,23.29,14.21Z"/><path class="cls-2" d="M22.35,9.06a.49.49,0,0,0,.5.49.53.53,0,0,0,.49-.49V5.74a.49.49,0,0,0-.5-.5.54.54,0,0,0-.49.5Z"/><path class="cls-2" d="M23.22,8.75a.48.48,0,0,0-.7,0,.52.52,0,0,0,0,.7L24,10.89a.48.48,0,0,0,.7,0,.53.53,0,0,0,0-.71Z"/></g></g></svg>