<?xml version="1.0" encoding="UTF-8"?>
<svg width="11px" height="17px" viewBox="0 0 11 17" version="1.1" xmlns="http://www.w3.org/2000/svg" xmlns:xlink="http://www.w3.org/1999/xlink">
    <title>Icon/Left/Grey/12px</title>
    <g id="Homepage" stroke="none" stroke-width="1" fill="none" fill-rule="evenodd">
        <g id="Homepage-1.2" transform="translate(-504.000000, -1727.000000)" fill="#818181" fill-rule="nonzero">
            <g id="Group" transform="translate(503.588235, 1727.000000)">
                <g id="Icon/Left/Orange/12px" transform="translate(5.500000, 8.500000) scale(-1, 1) translate(-5.500000, -8.500000) ">
                    <path d="M2.90371839,11.2333719 C3.2335463,11.5691165 3.76563684,12.1085174 4.09769385,12.4465311 L4.69577924,13.05758 C5.02560715,13.3910842 5.55769769,13.3955593 5.8897547,13.05758 L6.48784009,12.4465311 C6.817668,12.1130269 7.35420548,11.5668589 7.68181555,11.2333719 L13.3525094,5.45866117 C13.6823373,5.12291658 13.6867336,4.58128102 13.3547081,4.24326734 L12.7544274,3.63445307 C12.4268004,3.30094891 11.8902573,3.30094891 11.5626473,3.63669122 L5.88970178,9.40910999 C5.55987387,9.74485458 5.02333639,9.74261414 4.69572633,9.40910999 L-0.974967545,3.63669122 C-1.30479545,3.30094662 -1.83688599,3.29647148 -2.168943,3.63445307 L-2.7670284,4.24326734 C-3.09685631,4.57901194 -3.09465535,5.1251742 -2.7670284,5.45866117 L2.90371839,11.2333719 Z" id="Path" transform="translate(5.294118, 8.346154) scale(-1, 1) rotate(-90.000000) translate(-5.294118, -8.346154) "></path>
                </g>
            </g>
        </g>
    </g>
</svg>