<?xml version="1.0" encoding="UTF-8"?>
<svg width="8px" height="13px" viewBox="0 0 8 13" version="1.1" xmlns="http://www.w3.org/2000/svg" xmlns:xlink="http://www.w3.org/1999/xlink">
    <title>Icon/Right</title>
    <g id="Homepage" stroke="none" stroke-width="1" fill="none" fill-rule="evenodd">
        <g id="Homepage-1.2" transform="translate(-764.000000, -2467.000000)" fill="#E74010" fill-rule="nonzero">
            <g id="Brands" transform="translate(127.000000, 2250.000000)">
                <g id="Icon/Right/Orange/12px" transform="translate(637.000000, 217.000000)">
                    <path d="M2.27360054,8.93145368 C2.51180958,9.18512737 2.89609719,9.59267468 3.13591614,9.84806279 L3.56786671,10.3097442 C3.80607575,10.5617252 4.19036336,10.5651064 4.43018231,10.3097442 L4.86213288,9.84806279 C5.10034192,9.59608187 5.48784121,9.18342161 5.72444848,8.93145368 L9.81994961,4.56833887 C10.0581587,4.31466517 10.0613337,3.90542942 9.82153756,3.65004131 L9.38800149,3.1900483 C9.15138202,2.93806738 8.76387867,2.93806738 8.5272714,3.19173935 L4.4301441,7.55312242 C4.19193505,7.80679611 3.80443576,7.80510334 3.56782849,7.55312242 L-0.527672638,3.19173935 C-0.765881685,2.93806565 -1.1501693,2.93468443 -1.38998825,3.1900483 L-1.82193881,3.65004131 C-2.06014785,3.903715 -2.05855828,4.31637094 -1.82193881,4.56833887 L2.27360054,8.93145368 Z" id="Path" transform="translate(4.000000, 6.750000) rotate(-90.000000) translate(-4.000000, -6.750000) "></path>
                </g>
            </g>
        </g>
    </g>
</svg>