<svg xmlns="http://www.w3.org/2000/svg" viewBox="0 0 37.42 24.75"><defs><style>.cls-1{fill:#092632;}.cls-2{fill:#e74010;}</style></defs><g id="Layer_2" data-name="Layer 2"><g id="Layer_1-2" data-name="Layer 1"><path class="cls-1" d="M32,2.69V4.61H1.54V2.69A1.13,1.13,0,0,1,2.69,1.54H30.84A1.13,1.13,0,0,1,32,2.69ZM2.69,0A2.7,2.7,0,0,0,0,2.69V18.8a2.7,2.7,0,0,0,2.69,2.69H25.08a.82.82,0,0,0,.56-.22.79.79,0,0,0,0-1.09.74.74,0,0,0-.56-.22H2.69A1.13,1.13,0,0,1,1.54,18.8V8.88H32v1.54a.82.82,0,0,0,.22.55.77.77,0,0,0,1.1,0,.82.82,0,0,0,.22-.55V2.69A2.7,2.7,0,0,0,30.84,0Z"/><path class="cls-2" d="M11.81,16.39H9.29a.74.74,0,0,0,0,1.47h2.52a.74.74,0,1,0,0-1.47Z"/><path class="cls-2" d="M6.85,16.39H4.34a.74.74,0,0,0,0,1.47H6.86a.74.74,0,0,0,.74-.73A.75.75,0,0,0,6.85,16.39Z"/><path class="cls-2" d="M32.26,23.63c-4.17-1.54-4.1-4.9-4-7.86v-.41a6.5,6.5,0,0,0,4-1.53,6.53,6.53,0,0,0,4,1.53v.41c.07,3,.14,6.32-4,7.86Zm5.13-8.81a.51.51,0,0,0-.16-.39.55.55,0,0,0-.38-.16,5.59,5.59,0,0,1-4.21-1.59.56.56,0,0,0-.76,0,5.55,5.55,0,0,1-4.2,1.59.55.55,0,0,0-.55.55c0,.29,0,.6,0,.92-.06,3-.13,7.21,5,9h0a.53.53,0,0,0,.35,0c5.1-1.77,5-5.94,5-9,0-.32,0-.63,0-.92Z"/><path class="cls-1" d="M33.42,17.22l-1.71,1.7-.6-.6a.55.55,0,0,0-.77,0,.53.53,0,0,0,0,.77l1,1h0a.55.55,0,0,0,.39.16.55.55,0,0,0,.38-.16l2.1-2.1a.54.54,0,0,0,0-.75.53.53,0,0,0-.74,0Z"/></g></g></svg>