<svg xmlns="http://www.w3.org/2000/svg" viewBox="0 0 32.02 26.01"><defs><style>.cls-1{fill:#092632;}.cls-2{fill:#e74010;}</style></defs><g id="Layer_2" data-name="Layer 2"><g id="Layer_1-2" data-name="Layer 1"><path class="cls-1" d="M16.09,26a1,1,0,0,1-.71-.31l-3.22-3.42-8.83,0h0a3.23,3.23,0,0,1-3.23-3.2L0,3.39A3.22,3.22,0,0,1,3.2.15L28.69,0h0a3.22,3.22,0,0,1,3.22,3.2L32,19a3.23,3.23,0,0,1-3.2,3.24l-8.83,0-3.18,3.45a1,1,0,0,1-.71.32Zm-3.41-4.93,3.41,3.62L19.46,21,28.81,21a2,2,0,0,0,2-2L30.73,3.21a2,2,0,0,0-2-2h0v0L3.21,1.35a2,2,0,0,0-2,2l.09,15.74a2,2,0,0,0,2,2h0Z"/><path class="cls-2" d="M9.59,13.53l-1.67-.26s-.44-1-.71-1.44-.48,0-.48,0L6,13.29l-1.7.26a.27.27,0,0,0-.07.49l1.17,1.13-.28,1.66c-.05.49.46.22.46.22L7,16.32l1.44.73c.5.22.4-.28.4-.28l-.26-1.61L9.69,14c.37-.35-.1-.47-.1-.47Z"/><path class="cls-2" d="M18.54,13.48l-1.67-.26s-.43-1-.71-1.44-.48,0-.48,0L15,13.23l-1.7.27a.26.26,0,0,0-.07.49l1.17,1.12-.28,1.66c-.06.5.45.23.45.23l1.42-.73,1.44.73c.5.22.4-.28.4-.28l-.26-1.62L18.65,14c.37-.35-.11-.47-.11-.47Z"/><path class="cls-2" d="M27.39,13.43l-1.67-.26s-.43-1-.71-1.44-.48,0-.48,0l-.73,1.45-1.7.26a.27.27,0,0,0-.07.5l1.17,1.12-.28,1.66c-.06.5.45.23.45.23l1.42-.73,1.44.73c.5.22.4-.28.4-.28l-.26-1.62L27.5,13.9c.37-.35-.11-.47-.11-.47Z"/><path class="cls-2" d="M14.18,5.84l-1.67-.25s-.43-1-.71-1.45-.48,0-.48,0L10.59,5.6l-1.7.26a.26.26,0,0,0-.07.49L10,7.48,9.71,9.14c-.06.49.45.22.45.22l1.42-.73L13,9.36c.5.22.4-.28.4-.28l-.26-1.61,1.13-1.16c.37-.35-.11-.47-.11-.47Z"/><path class="cls-2" d="M23.14,5.79l-1.67-.26s-.43-1-.71-1.44-.48,0-.48,0l-.74,1.46-1.7.26a.27.27,0,0,0-.07.49l1.17,1.13-.27,1.66c-.06.49.45.22.45.22l1.41-.73L22,9.31c.49.22.4-.28.4-.28l-.26-1.61,1.12-1.16c.38-.35-.1-.47-.1-.47Z"/></g></g></svg>