<svg id="visual" viewBox="0 0 960 300" width="960" height="300" xmlns="http://www.w3.org/2000/svg" xmlns:xlink="http://www.w3.org/1999/xlink" version="1.1"><path d="M0 152L26.7 146.8C53.3 141.7 106.7 131.3 160 128C213.3 124.7 266.7 128.3 320 132C373.3 135.7 426.7 139.3 480 146.2C533.3 153 586.7 163 640 167.2C693.3 171.3 746.7 169.7 800 165.3C853.3 161 906.7 154 933.3 150.5L960 147L960 0L933.3 0C906.7 0 853.3 0 800 0C746.7 0 693.3 0 640 0C586.7 0 533.3 0 480 0C426.7 0 373.3 0 320 0C266.7 0 213.3 0 160 0C106.7 0 53.3 0 26.7 0L0 0Z" fill="#0066FF" stroke-linecap="round" stroke-linejoin="miter"></path></svg>